<svg id="Layer_1" data-name="Layer 1" xmlns="http://www.w3.org/2000/svg" viewBox="0 0 70.87 70.87"><defs><style>.cls-1{fill:#fff;}.cls-2{fill:#0f1647;}</style></defs><path id="Rectangle_58" data-name="Rectangle 58" class="cls-1" d="M35.43,0h0A35.43,35.43,0,0,1,70.86,35.43h0A35.43,35.43,0,0,1,35.43,70.86h0A35.43,35.43,0,0,1,0,35.43H0A35.44,35.44,0,0,1,35.43,0Z"/><g id="Group_702" data-name="Group 702"><g id="Group_701" data-name="Group 701"><path id="Path_811" data-name="Path 811" class="cls-2" d="M27.16,34.3,42.05,19.41a.93.93,0,0,0,0-1.32h0a.92.92,0,0,0-1.31,0h0L25.17,33.64a.94.94,0,0,0,0,1.32h0L40.73,50.51a.91.91,0,0,0,1.31,0,.92.92,0,0,0,0-1.31h0Z"/><path id="Path_812" data-name="Path 812" class="cls-2" d="M41.39,52.07a2.25,2.25,0,0,1-1.56-.65L24.27,35.87a2.22,2.22,0,0,1,0-3.13L39.83,17.18a2.22,2.22,0,0,1,3.13,0h0a2.22,2.22,0,0,1,0,3.13l-14,14,14,14a2.22,2.22,0,0,1-1.56,3.78Z"/></g></g></svg>